<svg width="606" height="126" viewBox="0 0 606 126" fill="none" xmlns="http://www.w3.org/2000/svg">
<path fill-rule="evenodd" clip-rule="evenodd" d="M218.5 25C225.404 25 231 19.4036 231 12.5C231 5.59644 225.404 0 218.5 0C211.596 0 206 5.59644 206 12.5C206 19.4036 211.596 25 218.5 25ZM210.417 125.92C230.097 125.92 245.937 111.52 245.937 82.7195V81.4395C245.937 52.7995 230.097 38.0795 210.577 38.0795C197.937 38.0795 189.297 44.7995 184.497 52.7995V3.51953H155.857V124H184.497V111.04C188.657 120 197.937 125.92 210.417 125.92ZM296.43 125.92C321.71 125.92 336.27 115.2 338.83 96.3195H311.95C310.83 101.92 306.83 106.24 297.39 106.24C287.15 106.24 280.75 99.8395 279.95 88.7995H338.83V81.2795C338.83 51.1995 319.15 38.0795 296.27 38.0795C270.99 38.0795 250.99 55.0395 250.99 81.9195V83.1995C250.99 110.56 270.19 125.92 296.43 125.92ZM280.27 72.6395C281.71 62.5595 287.63 56.9595 296.27 56.9595C305.55 56.9595 310.51 62.5595 310.99 72.6395H280.27ZM396.996 114.24C392.996 120.32 385.636 125.92 372.196 125.92C357.156 125.92 343.876 118.56 343.876 100.8C343.876 81.1195 360.516 73.4395 388.356 73.4395H396.356V71.5195C396.356 63.5195 394.436 58.2395 385.316 58.2395C377.476 58.2395 374.596 62.8795 373.956 68.1595H347.076C348.356 47.9995 364.196 38.0795 387.076 38.0795C410.116 38.0795 424.836 47.5195 424.836 69.7595V124H396.996V114.24ZM372.196 98.7195C372.196 103.52 375.396 106.56 382.116 106.56C390.276 106.56 396.356 101.92 396.356 94.7195V89.5995H388.836C377.316 89.5995 372.196 91.8395 372.196 98.7195ZM437.976 124H466.616V77.1195C466.616 66.3995 472.376 61.2795 480.856 61.2795C489.176 61.2795 492.856 65.9195 492.856 75.3595V124H521.496V69.5995C521.496 48.1595 510.296 38.0795 494.136 38.0795C480.216 38.0795 471.096 45.1195 466.616 53.7595V40.3195H437.976V124ZM605.34 97.1195C605.34 116.96 590.62 125.92 567.42 125.92C543.58 125.92 529.66 116 529.02 97.4395H555.42C556.38 103.52 559.1 106.88 567.26 106.88C574.3 106.88 577.5 104.16 577.5 99.9995C577.5 95.9995 573.5 94.0795 561.98 92.4795C539.58 89.5995 530.14 83.0395 530.14 65.5995C530.14 47.0395 546.62 38.0795 565.98 38.0795C586.62 38.0795 601.02 45.1195 602.94 65.1195H577.02C575.9 59.5195 572.86 56.7995 566.3 56.7995C560.06 56.7995 556.86 59.5195 556.86 63.3595C556.86 67.3595 560.7 68.9595 570.94 70.2395C594.14 73.1195 605.34 79.1995 605.34 97.1195ZM204 100C213.941 100 222 91.9411 222 82C222 72.0589 213.941 64 204 64C194.059 64 186 72.0589 186 82C186 91.9411 194.059 100 204 100ZM33.04 125.18C52.156 125.18 64.192 113.616 64.192 96.5055C64.192 80.1035 52.628 69.0115 36.462 69.0115C26.432 69.0115 19.47 73.3775 15.576 79.8675C16.048 60.6335 23.482 50.6035 34.81 50.6035C42.952 50.6035 46.256 54.3795 47.79 60.7515H62.422C60.416 46.0015 50.268 38.4495 34.928 38.4495C14.75 38.4495 0 54.3795 0 83.6435V85.6495C0 107.952 8.496 125.18 33.04 125.18ZM32.804 113.616C23.246 113.616 16.52 107.126 16.52 95.9155C16.52 86.5935 23.246 79.8675 32.804 79.8675C42.48 79.8675 48.616 86.7115 48.616 96.8595C48.616 106.89 42.244 113.616 32.804 113.616ZM106.052 112.672C93.4256 112.672 86.1096 102.996 86.1096 83.8795V79.6315C86.1096 60.8695 93.0716 50.7215 105.816 50.7215C118.442 50.7215 125.286 61.5775 125.286 79.5135V83.6435C125.286 102.76 119.032 112.672 106.052 112.672ZM105.698 125.18C127.764 125.18 140.98 109.014 140.98 83.6435V79.3955C140.98 54.0255 127.056 38.4495 105.698 38.4495C84.4576 38.4495 70.2976 54.1435 70.2976 79.7495V83.9975C70.2976 109.368 84.2216 125.18 105.698 125.18Z" fill="white"/>
</svg>
