<?xml version="1.0" encoding="utf-8"?>
<!-- Generator: Adobe Illustrator 26.0.1, SVG Export Plug-In . SVG Version: 6.00 Build 0)  -->
<svg version="1.1" id="Layer_1" xmlns="http://www.w3.org/2000/svg" xmlns:xlink="http://www.w3.org/1999/xlink" x="0px" y="0px"
	 viewBox="0 0 525 106" style="enable-background:new 0 0 525 106;" xml:space="preserve">
<style type="text/css">
	.st0{fill-rule:evenodd;clip-rule:evenodd;fill:#212121;}
	.st1{fill:#212121;}
	.st2{fill:#D4FF81;}
</style>
<path class="st0" d="M211.4,68.6c0,24.9-13.8,37.4-30.9,37.4c-10.9,0-18.9-5.1-22.5-12.9v11.2H133V0h24.9v42.7
	c4.2-6.9,11.7-12.7,22.7-12.7c17,0,30.8,12.7,30.8,37.6V68.6z M292.2,80.4c-2.2,16.4-14.9,25.6-36.9,25.6c-22.8,0-39.5-13.3-39.5-37
	v-1.1c0-23.3,17.4-38,39.4-38c19.9,0,37,11.4,37,37.4v6.5h-51.2c0.7,9.6,6.3,15.1,15.2,15.1c8.2,0,11.7-3.7,12.7-8.6H292.2z
	 M255.1,46.3c-7.5,0-12.7,4.8-13.9,13.6h26.7C267.5,51.1,263.2,46.3,255.1,46.3z M322.2,106c11.7,0,18.1-4.9,21.6-10.1v8.5H368v-47
	c0-19.3-12.8-27.4-32.8-27.4c-19.9,0-33.7,8.6-34.8,26h23.4c0.6-4.6,3.1-8.6,9.9-8.6c7.9,0,9.6,4.6,9.6,11.5v1.7h-7
	c-24.2,0-38.7,6.7-38.7,23.7C297.6,99.6,309.1,106,322.2,106z M330.8,89.2c-5.8,0-8.6-2.6-8.6-6.8c0-6,4.5-7.9,14.5-7.9h6.5V79
	C343.2,85.2,337.9,89.2,330.8,89.2z M404.3,104.3h-24.9V31.9h24.9v11.6c3.9-7.5,11.8-13.6,23.9-13.6c14.1,0,23.8,8.7,23.8,27.3v47.1
	h-24.9V62.2c0-8.2-3.2-12.2-10.4-12.2c-7.4,0-12.4,4.4-12.4,13.7V104.3z M492,106c20.2,0,33-7.8,33-24.9c0-15.5-9.7-20.8-29.9-23.3
	c-8.9-1.1-12.2-2.5-12.2-6c0-3.3,2.8-5.7,8.2-5.7c5.7,0,8.4,2.4,9.3,7.2h22.5c-1.7-17.3-14.2-23.4-32.2-23.4
	c-16.8,0-31.2,7.8-31.2,23.8c0,15.1,8.2,20.8,27.7,23.3c10,1.4,13.5,3,13.5,6.5c0,3.6-2.8,6-8.9,6c-7.1,0-9.5-2.9-10.3-8.2h-23
	C459.2,97.4,471.3,106,492,106z M174.3,84.6c8.8,0,16-7.1,16-15.9c0-8.8-7.2-15.9-16-15.9c-8.8,0-16,7.1-16,15.9
	C158.3,77.4,165.4,84.6,174.3,84.6z"/>
<path class="st1" d="M28.8,105.9c16.6,0,27.1-10.1,27.1-25C55.9,66.7,45.8,57,31.7,57C23,57,17,60.8,13.6,66.5
	C14,49.7,20.4,41,30.3,41c7.1,0,10,3.3,11.3,8.8h12.7C52.6,37,43.8,30.4,30.4,30.4C12.8,30.4,0,44.3,0,69.8v1.7
	C0,90.9,7.4,105.9,28.8,105.9z M28.6,95.8c-8.3,0-14.2-5.7-14.2-15.4c0-8.1,5.9-14,14.2-14c8.4,0,13.8,6,13.8,14.8
	C42.3,90,36.8,95.8,28.6,95.8z"/>
<path class="st1" d="M92.3,95C81.3,95,75,86.6,75,70v-3.7c0-16.3,6.1-25.2,17.2-25.2c11,0,17,9.5,17,25.1v3.6
	C109.1,86.4,103.6,95,92.3,95z M92,105.9c19.2,0,30.7-14.1,30.7-36.2v-3.7c0-22.1-12.1-35.6-30.7-35.6c-18.5,0-30.8,13.7-30.8,36
	v3.7C61.2,92.1,73.3,105.9,92,105.9z"/>
<circle class="st2" cx="202" cy="13" r="13"/>
<circle class="st2" cx="202" cy="13" r="13"/>
</svg>
