<svg width="40" height="40" viewBox="0 0 40 40" fill="none" xmlns="http://www.w3.org/2000/svg">
<path fill-rule="evenodd" clip-rule="evenodd" d="M20.0215 39.9572C31.023 39.9572 39.9415 31.0932 39.9415 20.159C39.9415 9.22478 31.023 0.36084 20.0215 0.36084C9.01999 0.36084 0.101501 9.22478 0.101501 20.159C0.101501 31.0932 9.01999 39.9572 20.0215 39.9572ZM18.9127 13.1503C18.1486 12.6441 17.1662 12.5969 16.3566 13.0275C15.5469 13.4582 15.0415 14.2968 15.0415 15.2095V25.1085C15.0415 26.0212 15.5469 26.8598 16.3566 27.2905C17.1662 27.7211 18.1486 27.674 18.9127 27.1677L26.3827 22.2181C27.0754 21.7592 27.4915 20.9865 27.4915 20.159C27.4915 19.3316 27.0754 18.5589 26.3827 18.0999L18.9127 13.1503Z" fill="#D4FF81"/>
</svg>